<svg id="Layer_1" data-name="Layer 1" xmlns="http://www.w3.org/2000/svg" viewBox="0 0 6385.88 3984.89"><defs><style>.cls-1{fill:#010101;}.cls-2{fill:#fff;}.cls-3,.cls-5,.cls-6{fill:none;stroke:#010101;stroke-miterlimit:10;}.cls-3{stroke-width:1px;}.cls-4{fill:#1d1d1b;}.cls-5{stroke-width:2px;}.cls-6{stroke-linecap:round;stroke-width:3px;}</style></defs><path class="cls-1" d="M266,1282.07a33.6,33.6,0,0,1-10.43,23.59,34.74,34.74,0,0,1-16,8.73c0,.57,0,1.14,0,1.71v90.82h-8A12,12,0,0,1,219.57,1395v-39.55c0-22.14-18.31-40.1-40.91-40.1h-7.32c-22.6,0-40.91,18-40.91,40.1V1395a12,12,0,0,1-12.13,11.89h-8V1316.1c0-.57,0-1.14,0-1.71a34.74,34.74,0,0,1-16-8.73A33.6,33.6,0,0,1,84,1282.07l71.27-119.83c9.24,0,15.09,9.73,10.61,17.65l-24.11,42.63c-14.71,26,3.56,57.78,33.27,59.47,29.71-1.69,48-33.46,33.27-59.47l-24.11-42.63c-4.48-7.92,1.37-17.65,10.61-17.65Z" transform="translate(245.14 -17.87)"/><path class="cls-1" d="M193.22,1242.74a16.92,16.92,0,0,1-17.1,16.75c-.37,0-.75,0-1.12,0s-.75,0-1.12,0a16.75,16.75,0,1,1,0-33.5c.37,0,.75,0,1.12,0s.75,0,1.12,0A16.92,16.92,0,0,1,193.22,1242.74Z" transform="translate(245.14 -17.87)"/><path class="cls-1" d="M454,1328v24.76c0,29.93,26,54.2,58.16,54.2h88.2c19.73,0,35.72-14.9,35.72-33.28v-37.43c0-29.93-26-54.2-58.16-54.2H550c-19.72,0-35.72,14.9-35.72,33.28h38.16c14.32,0,25.93,10.82,25.93,24.16v14c0,13.35-11.61,24.16-25.93,24.16H525.49c-14.32,0-25.92-10.81-25.92-24.16h40.72c5.62,0,10.17-4.24,10.17-9.47h0c0-5.24-4.55-9.48-10.17-9.48H497.58v-42.9a23.33,23.33,0,0,1,7-16.55l31.73-31.47c22.2-22,34.56-51.1,34.56-81.32h0L487.14,1248C465.79,1269.89,454,1298.39,454,1328Z" transform="translate(245.14 -17.87)"/><ellipse class="cls-1" cx="731.84" cy="1184.66" rx="10.34" ry="9.64"/><path class="cls-1" d="M1006,1407.2c0-12-8.9-21.63-19.86-25.37-14.29-4.88-30.11-4.4-44.71-8.74-14.16-4.2-30.22-10.37-42.27-18.93-17.23-12.23-29.79-29.37-31.6-51.3-1.92-23.2,11.1-47.25,28.41-61.94l41.86-44.72c9.26-9.89-12.26-23.54-21.11-33.72l-.21-.24-65.16,70.17c-24.39,26.27-33.17,61-23.68,93.85,13.76,47.6,62.77,80.94,118.94,80.94Z" transform="translate(245.14 -17.87)"/><path class="cls-1" d="M1629.93,1162.24c-36.39,0-65.93,24.93-65.93,55.68v133c0,30.75,29.54,55.68,65.93,55.68H1746v-4.27c0-13.84-13.24-25-29.62-25h-74.9c-23.19,0-42-15.89-42-35.49v-84c0-3.44,3.63-6.23,8.1-6.23h0c29.54,0,54.86-.2,80.93-.37,31.82-.21,57.48-20.07,57.48-44.5h0c0-24.58-26-44.5-58-44.5Zm-22,64.35c-5.07,0-9-3.55-8-7.37a34.25,34.25,0,0,1,11.38-17.72,46,46,0,0,1,29.66-10.36h58.94c4.48,0,8.11,2.78,8.11,6.22v23c0,3.43-3.63,6.22-8.11,6.22Z" transform="translate(245.14 -17.87)"/><path class="cls-1" d="M1934,1193.43v183.14c0,16.76,16.13,30.35,36,30.35h0l-.48-29.23V1252.26h8.1c16.36,0,29.63-11.18,29.63-25H1969c0-19.54,18.8-35.39,42-35.39h75.46c16.36,0,29.63-11.17,29.63-25v-3.86H1970C1950.09,1163.08,1934,1176.67,1934,1193.43Z" transform="translate(245.14 -17.87)"/><path class="cls-1" d="M2486,1407.2v-65.86c0-25.66-19.42-46.46-43.37-46.46h-51.44c-22.21,0-40.22-19.29-40.22-43.09h0c0-23.8,18-43.09,40.22-43.09H2419c23.94,0,43.36-20.8,43.36-46.46h-77.56c-44.89,0-81.28,39-81.28,87.08h0c0,48.09,36.39,87.08,81.28,87.08h77.56v45.41c0,14,10.61,25.39,23.7,25.39Z" transform="translate(245.14 -17.87)"/><circle class="cls-1" cx="3010.14" cy="1255.6" r="10.41"/><path class="cls-1" d="M2811.29,1214.51v17.07c0,35,16.1,68.53,44.75,93.27h0c0,28.64-13.18,56.11-36.63,76.36l-6.95,6h0c-13.48,0-24.42-9.43-24.42-21.08v-16.54h0c24.72,0,44.76-17.3,44.76-38.64v-6.32h0c-28.57-24.67-50.92-58.12-50.92-93v-69.38h13.59c7.21,0,13.13,4.9,13.47,11.12C2809.92,1191.29,2811.29,1206,2811.29,1214.51Z" transform="translate(245.14 -17.87)"/><path class="cls-1" d="M2718.71,1214.51v17.07c0,35-16.1,68.53-44.75,93.27h0c14.9-.15,33.21-5.32,43.74-14.42,0,0,26.74-16.15,28.18-58.74v-89.45h-11.21c-7.63,0-13.89,5.25-14.08,11.83C2720.09,1191.28,2718.71,1206.12,2718.71,1214.51Z" transform="translate(245.14 -17.87)"/><path class="cls-1" d="M84,1565.08h1.5a145.78,145.78,0,0,1,58.44,12.48c14.83,6.49,36.25,11.09,59.38.4a140.14,140.14,0,0,1,59.88-12.49l2.88,0h0c0,25.36-24,45.91-53.6,45.91H190.83v82.82c0,31.1-14.43,60.93-40.11,82.93h0c-15.08,0-27.32-10.48-27.32-23.4v-11h0c15.13,0,27.39-10.5,27.39-23.46V1611.41H137.58c-29.23,0-53.08-20.06-53.59-45.1Z" transform="translate(245.14 -17.87)"/><path class="cls-1" d="M636,1671.37l-3.28,0c-21.78,0-37.06,13.69-37.06,30.64,0,21.53-23.93,39-53.44,39h-1.94s-21.87-14.48-10.93-33.5c2.37-4.12,4.81-8.76,3-13.54-2.18-5.58-7-9.59-9.62-14.88-1-1.9-1.81-3.88-2.61-5.86a80.76,80.76,0,0,1-4.65-15c-1.82-9.31-1.34-21.07,9.43-24.31,8.77-2.64,19,.26,27.35,3,14.28,4.63,43.47,15,43.47,15V1532.84c-16.14,0-29.23,10.19-29.23,22.76v64S490.75,1593.05,454,1651.9l65.29,44.62L454,1737.27v4.19c0,20,22.38,35.7,48.06,35.7h28.23A105.79,105.79,0,0,0,636,1671.37Z" transform="translate(245.14 -17.87)"/><path class="cls-1" d="M824,1710.86c-.11,36.54,36.69,66.23,118.68,66.3H1006c0-10.46-21-18.93-47-18.93h0c-70.67,5.21-92-27.64-92-51.19V1545.28c.06-16.76-23.51-13-23.51-13-10.74,0-19.57,0-19.57,16.46C824,1579.56,824.14,1652.18,824,1710.86Z" transform="translate(245.14 -17.87)"/><path class="cls-1" d="M2304,2105.8h0c16.51,0,31.29-7.82,37.12-19.64l28.17-57.13h0c-36.06,0-65.29-22.37-65.29-50v-76.23h0c15.15,0,27.44,9.4,27.44,21v25.31c0,15.89,16.83,28.77,37.59,28.77h0c14.94,0,28.46-6.77,34.44-17.25l32.85-57.49h0c27.41-.19,49.76,16.77,49.76,37.74v2.52h0c-28.11,0-34.46,20.33-45,40.26L2360.67,2135c-6.24,11.76-40.12,12.16-56.71,12.16h0Z" transform="translate(245.14 -17.87)"/><path class="cls-1" d="M2674,1977.92h65.46a2.47,2.47,0,0,1,2.17,3.64l-66.05,121.34a13.05,13.05,0,0,0-1.58,6.21v25a13,13,0,0,0,13,13H2856c0-22.84-21.54-41.36-48.11-41.36h-69c-18.94,0-31.49-16.88-23.54-31.66l51.75-96.22h0c13.3,0,24.08-9.27,24.08-20.7v-41.38a13,13,0,0,0-13-13H2761.3c-48.24,0-87.34,33.61-87.34,75.08Z" transform="translate(245.14 -17.87)"/><path class="cls-1" d="M1564,1902.84h10.68c16.57,0,21.72,11.93,21.72,24v176.74l49-192.92c1-4.48,6.27-7.79,12.51-7.79h0c6.17,0,11.44,3.23,12.48,7.64l45.16,190.91V1924.65c0-12,13.43-21.81,30-21.81h0l.43,218.37c0,14.32-15.94,25.95-35.65,25.95h0L1673.6,2025c-1.55-5.14-7.81-8.8-15-8.8h0c-7.16,0-13.38,3.6-15,8.67l-43.92,122.3c-19.69,0-35.65-11.6-35.65-25.91Z" transform="translate(245.14 -17.87)"/><path class="cls-1" d="M1232.65,1902.84h0L1282,2101.39l50.82-198.55h4.55c21.37,0,38.69,13.61,38.69,30.41v16.11l-43.24,197.8H1232.65L1194,1949.36v-16.11C1194,1916.45,1211.28,1902.84,1232.65,1902.84Z" transform="translate(245.14 -17.87)"/><path class="cls-1" d="M636,1953.77c0,20.11-25.48,36.41-57,36.41h-7.78v157H523.6v-157H511c-15.75,0-30-4.08-40.35-10.66S454,1963.82,454,1953.77H523.6v-34.91c0-8.85,6.59-16,20.16-16h7.86c13.57,0,19.63,7.09,19.63,15.94v35Z" transform="translate(245.14 -17.87)"/><path class="cls-1" d="M224.77,1902.84h0c0,27.43-39.93,49.66-89.2,49.66h0c-5.07,0-9.19,2.91-9.19,6.5v3.34c0,16.61,24.19,30.08,54,30.08h0c47.29,0,85.63,21.35,85.63,47.68v42.21c0,18.92-27.55,34.26-61.54,34.26h0v6.49c0,13.31-15.27,24.1-34.11,24.1h0v-30.59H147.17c0,9.18-13.37,16.63-29.86,16.63h0c-2.54,0-4.59-1.46-4.59-3.25v-13.38h0c0-10.52,15.31-19,34.2-19h0c31.41,0,56.88-14.18,56.88-31.67v-4.74c0-26.33-38.34-47.68-85.63-47.68h0c-18.89,0-34.21-8.52-34.21-19v-80.57c0-6,8.75-10.89,19.55-10.89Z" transform="translate(245.14 -17.87)"/><path class="cls-1" d="M2111.27,2086.1l4.77,10.66-38.73,50.4,5.57-27.71a52.53,52.53,0,0,0-3.76-32.16v0c-8.65-19.36-28.12-35.56-54.11-45h0c-26,9.47-45.47,25.68-54.13,45h0a52.52,52.52,0,0,0-3.75,32.18l5.58,27.7-38.73-50.4,4.75-10.64c10.06-22.52,32.7-41.37,62.94-52.39h0c-7-2.57-12.31-7-14.66-12.21l-53-118.68,72.71,22.36h0c-15.24,3.23-23.8,14.37-19.11,24.87l32.83,73.47,4.61,1.67,4.58-1.67,32.83-73.47c4.7-10.5-3.86-21.64-19.11-24.87h0l72.74-22.36L2063,2021.52c-2.35,5.25-7.62,9.64-14.67,12.21h0C2078.57,2044.76,2101.21,2063.59,2111.27,2086.1Z" transform="translate(245.14 -17.87)"/><path class="cls-1" d="M1591.65,1777.16h0V1623.28c0-16.89,13.16-30.58,29.4-30.58h0c13,0,24.46,8.88,28.18,21.84l32.23,112.37c8.51,29.7,34.78,50.06,64.58,50.06h0V1532.84h0c-27.65,0-50.07,26.62-50.07,59.46v19.28c0,10.91-14.18,14.3-18.77,4.49h0c-20.94-44.78-64.63-73.21-112.52-73.21h0l-.68,205.45C1564,1764.23,1576.34,1777.16,1591.65,1777.16Z" transform="translate(245.14 -17.87)"/><path class="cls-1" d="M3044,1627.45h0c20.49,0,37.09,11,37.09,24.58v95.65h53.53c16.33,0,29.57-8.77,29.57-19.59h0l-39.07-25.89h0c10.5-7,27.53-7,38,0l15.58,10.32V1682.6c0-33.63-20.16-65.89-56.06-89.68h0c-24-15.93-37.56-37.54-37.56-60.08h141c0,18.74-22.93,33.93-51.21,33.93h-51.64l77.52,51.36c9.24,6.13,14.43,14.43,14.43,23.09v103.29c0,18-22.06,32.65-49.27,32.65H3044Z" transform="translate(245.14 -17.87)"/><path class="cls-1" d="M2025.3,1570.24c27,0,49.86,15.41,49.86,33.67v102.18c0,10.65-7.69,18.26-12.28,21.85-9.59,7.52-23.29,11.82-37.58,11.82-26.91,0-49.73-15.35-49.84-33.53l-.62-102.21c-.06-8.92,5.25-15.68,9.72-19.79,9.66-8.89,24.29-14,40.12-14h.62m0-37.4h-.62c-50.27,0-91,32-90.72,71.4l.62,102.2c.24,39.11,40.78,70.72,90.72,70.72,25,0,47.75-8,64.17-20.81s26.57-30.64,26.57-50.26V1603.91c0-39.26-40.62-71.07-90.74-71.07Z" transform="translate(245.14 -17.87)"/><path class="cls-1" d="M2365.86,1777.16V1672.29c0-16.75,8.12-32.8,22.58-44.65l61.7-50.5-84.28-44.3h55.92l47.55,24.26c19.34,9.81,22.46,31.83,6.36,45l-55.51,45.45h0c-10.73,0-19.43,7.12-19.43,15.91v43.89c0,8,7.92,14.49,17.7,14.49h0Z" transform="translate(245.14 -17.87)"/><circle class="cls-1" cx="2572.09" cy="1564.07" r="22.99"/><path class="cls-1" d="M1221.28,1777.16l.12-172.7a2.49,2.49,0,0,1,4.91-.73l41.24,161.3c1.45,5.64,5.42,10.31,10.64,11.67,7.55,2,14.86-2.67,17.24-10.26l50.45-161.08c1.22-3.9,6.52-2.94,6.52,1.19l-.56,170.61c13.06,0,24.2-14.11,24.2-28.35V1632.16c0-54.85-40.76-99.32-91-99.32h0c-50.28,0-91,44.47-91,99.32V1746C1194,1762.51,1206.13,1777.16,1221.28,1777.16Z" transform="translate(245.14 -17.87)"/><path class="cls-1" d="M2792.15,1777.16V1671.83c0-16.82-8.16-32.95-22.69-44.85l-62-50.72,84.65-43.26-58-.16-41.37,21c-21.74,11-25.24,35.78-7.15,50.59l52,42.57h1.75c9.81,0,17.77,6.51,17.77,14.55v45.51c0,8-8,14.56-17.77,14.56h0Z" transform="translate(245.14 -17.87)"/><path class="cls-1" d="M2834.13,1568.28h15.4a6.28,6.28,0,0,1,5.63,9.42l-7.7,12.88-7.7,12.89a6.61,6.61,0,0,1-11.25,0l-7.7-12.89-7.7-12.88a6.28,6.28,0,0,1,5.63-9.42Z" transform="translate(245.14 -17.87)"/><path class="cls-1" d="M1376,1162.24v190.13h-4.88c-19.09,0-34.56-14.21-34.56-31.74v-36.46c0-17-15-30.7-33.44-30.7h0c-36.55,0-66.18,27.21-66.18,60.77h0c0,33.56,29.63,60.76,66.18,60.76h38.31c19.09,0,34.57,14.21,34.57,31.74h-88.87c-51.48,0-93.21-38.32-93.21-85.59V1304c0-47.27,41.73-85.59,93.21-85.59h0c0-31,27.39-56.16,61.17-56.16Z" transform="translate(245.14 -17.87)"/><path class="cls-1" d="M862.65,1902.84h0l30.45,122.54c4.1,16.5,34.1,16.57,38.31.09l31.38-122.63h4.56c21.37,0,38.69,13.61,38.69,30.41h0a149.67,149.67,0,0,1-3.47,32L971.2,2108.72c-4.86,22.21-29.36,38.44-58,38.44h0c-29.06,0-53.78-16.67-58.19-39.24l-28.23-144.29a149.31,149.31,0,0,1-2.79-28.71v-1.67C824,1916.45,841.28,1902.84,862.65,1902.84Z" transform="translate(245.14 -17.87)"/><ellipse class="cls-1" cx="1155.23" cy="1928.45" rx="16.51" ry="16.93"/><path class="cls-1" d="M124.54,214.55h70.13c26.42,0,40.21,23.78,40.21,52.23v50.8c0,8.43,14,14.55,21.81,14.55H266V215.48c0-24.14-18.17-43.7-40.59-43.7H193.34c-36.46,0-50.11-40.47-32.43-74.8l28.18-54.74c5.24-10.18-11-24.37-21.81-24.37h0L84,171.78h0C84.43,195.55,102.46,214.55,124.54,214.55Z" transform="translate(245.14 -17.87)"/><ellipse class="cls-1" cx="434.22" cy="112.75" rx="19.98" ry="21.51"/><path class="cls-1" d="M454,230.71v31.8c0,38.45,26,69.62,58.16,69.62h88.2c19.73,0,35.72-19.14,35.72-42.75V241.31c0-48.63-26.76-68.79-58.88-68.79h-27.9c-19.73,0-35,18.32-35,41.93h38.16c14.32,0,35.26,11.76,35.26,28.9V270.1c0,17.14-8.12,18.8-33.3,18.7H527.45c-14.32,0-27.88-8.23-27.88-25.37h40.72c5.62,0,10.17-5.45,10.17-12.17h0c0-6.72-4.55-12.17-10.17-12.17H497.58V184a34.6,34.6,0,0,1,7-21.25l31.73-40.42C571.25,85.76,570.9,56.68,570.9,17.87h0L481.84,123.2C460.92,150.12,454.3,191.82,454,230.71Z" transform="translate(245.14 -17.87)"/><circle class="cls-1" cx="731.66" cy="48.51" r="10.34"/><path class="cls-1" d="M1006,332.13h0c2.12-38.77-39.64-43.33-39.64-43.33-79.47.07-92.73-76.65-92.73-76.65-7.27-33.14-.21-68.18,19.06-94.59l41.86-57.37c9.26-12.7-9-28.94-17.83-42l-.21-.31-65.16,90c-24.39,33.7-33.17,78.32-23.68,120.4h0c13.76,61.06,62.77,103.84,118.94,103.84Z" transform="translate(245.14 -17.87)"/><path class="cls-1" d="M1194,17.87V262.24h4.88c19.09,0,34.56-18.26,34.56-40.79V174.59c0-21.79,15-39.46,33.44-39.46h0c36.55,0,66.18,35,66.18,78.1h0c0,43.14-29.63,78.11-66.18,78.11h-38.31c-19.09,0-34.57,18.26-34.57,40.79h88.87c51.48,0,93.21-49.25,93.21-110V200.06c0-60.76-41.73-110-93.21-110h0c0-39.86-27.39-72.18-61.17-72.18Z" transform="translate(245.14 -17.87)"/><path class="cls-1" d="M1564,89.48v171c0,39.54,29.52,71.6,65.94,71.6H1746v-5.49c0-17.77-13.27-32.18-29.64-37.83h-74.9c-29.74,0-42-14.76-42-40V138.37a5.56,5.56,0,0,1,5.57-5.56h2.53c16.36,0,29.63-14.41,29.63-32.18h-32.36a5.58,5.58,0,0,1-5.52-6.33c2.65-20.41,18.55-28,39.68-28h75.45c16.37,0,31.56-25.67,31.56-43.44v-5H1629.9C1593.48,17.88,1564,49.94,1564,89.48Z" transform="translate(245.14 -17.87)"/><path class="cls-1" d="M1934,57V293c0,21.6,16.13,39.11,36,39.11h0l-.48-37.67V138.37a5.57,5.57,0,0,1,5.57-5.57h2.53c16.36,0,29.63-14.4,29.63-32.18h-32.35a5.58,5.58,0,0,1-5.53-6.29c2.83-22.21,18.93-28,40.16-28H2085c16.37,0,31.08-25.68,31.08-43.45v-5H1970C1950.09,17.87,1934,35.38,1934,57Z" transform="translate(245.14 -17.87)"/><circle class="cls-1" cx="3010.68" cy="101.53" r="12.01"/><path class="cls-1" d="M2697.46,288.8h0c11.83,0,21.42-10.66,21.42-23.8V243.12c0-44.84-16-87.85-44.58-119.55h0c0-36.71,13.13-71.91,36.49-97.87l6.92-7.68h0c13.44,0,35.45,11.38,35.45,26.3v22L2742,66.24c-24.62,0-33.47,21.45-33.47,48.81v1.12a18.16,18.16,0,0,0,4.67,12.16l36,40a14.73,14.73,0,0,1,3.78,9.85v154h-16.67c-21.47,0-38.89-19.48-38.89-43.33Z" transform="translate(245.14 -17.87)"/><path class="cls-1" d="M2832.54,288.8h0c-11.83,0-21.42-10.66-21.42-23.8V243.12c0-44.84,16-87.85,44.58-119.55h0c0-36.71-13.13-71.91-36.49-97.87L2812.29,18h0c-13.44,0-35.05,12.55-35.05,27.48V66.29l10.72-.05c24.62,0,33.87,22.63,33.87,50h0a18.19,18.19,0,0,1-4.67,12.16l-36,39.94a14.73,14.73,0,0,0-3.78,9.85v154h16.28c21.47,0,38.88-19.48,38.88-43.33Z" transform="translate(245.14 -17.87)"/><path class="cls-1" d="M84,388h1.5c20.38,0,40.3,6.71,58.44,18.52,14.83,9.64,36.25,16.46,59.38.6,18.36-12.6,39-18.84,59.88-18.54l2.88,0h0c0,37.65-24,68.16-53.6,68.16h-8.31a13.31,13.31,0,0,0-13.3,13.31L189,617.49c0,24.11,3.19,30.71-7,56.15-9.88,24.64-45.82,28.8-72.36,28.8h0C94,702.44,84,674.21,84,658.6H122.2c15.12,0,28.59-22.31,28.59-41.54V470a13.21,13.21,0,0,0-13.21-13.21h0C108.35,456.8,84.5,427,84,389.85Z" transform="translate(245.14 -17.87)"/><circle class="cls-1" cx="373.39" cy="599.62" r="10.73"/><path class="cls-1" d="M454.87,524.46h0a39.5,39.5,0,0,0,39.43-39.55V438.84a4.18,4.18,0,0,1,4.18-4.18h51.2s21.87,18.66,10.93,43.17c-6.34,14.2-9.68,24.26,4.29,31.07,6.35,3.1,34.37,84.59-27.14,58.9-10.4-4.34-32-12.48-43-16.58a5,5,0,0,0-6.7,4.64V702.38l6.21.06c16.15,0,32.52-9.81,32.52-26V600.88a4.89,4.89,0,0,1,6.32-4.68c18.43,5.55,72.69,15.53,102.91-46.76l-57.17-50.35a9.52,9.52,0,0,1,0-14.3L636,434.54S636,388,588,388H454Z" transform="translate(245.14 -17.87)"/><path class="cls-1" d="M855.76,702.44H1006c0-28-56-24.53-73.4-24.53H914c-25.05,0-36.59-8.67-35.63-39V388.16H824V677C824,690.34,838.57,702.27,855.76,702.44Z" transform="translate(245.14 -17.87)"/><path class="cls-1" d="M2312.92,1019.62c9-.5,22.37-5,28.1-26l28.19-73.42h0c-36.1,0-65.36-28.74-65.36-64.2V758h0c15.17,0,36.31,10.89,36.31,25.8v32.52c0,20.42,8,38.16,28.8,38.16h0a37.67,37.67,0,0,0,34.48-22.16l32.89-73.89h0c27.44-.24,49.71,30.94,49.71,57.89,0,0-33.2,0-44.66,41L2361,1051.82c-6.25,15.12-40.49,20.16-57.1,20.16h0v-42.84A9.56,9.56,0,0,1,2312.92,1019.62Z" transform="translate(245.14 -17.87)"/><path class="cls-1" d="M2736.56,830.31,2674,1018.84v39.81a13.41,13.41,0,0,0,13.34,13.4l168.74.83c0-29.35-21.91-53.28-66.15-53.28H2741.2c-18.72,0-7.88-32.48,0-56.52,0,0,35.28-108.72,48.69-146.74V769.51a11.49,11.49,0,0,0-11.5-11.49H2741.2c-47.68,0-67.24,24.34-67.24,58.32h52.52A10.62,10.62,0,0,1,2736.56,830.31Z" transform="translate(245.14 -17.87)"/><path class="cls-1" d="M1564,758.35h10.64c16.51,0,22.48,15.42,22.48,30.88V915c0,11.77,17,13.4,19.25,1.85l28.78-148.46c.95-5.75,6.25-10,12.47-10h0c6.14,0,11.39,4.14,12.43,9.81l27.38,149.17c2,10.63,17.61,9.2,17.61-1.6V786.35c0-15.46,13.39-28,29.9-28h0l.43,280.32c0,18.39-15.89,33.31-35.52,33.31h0l-36.66-156.83c-1.54-6.59-7.77-11.29-15-11.29h0c-7.14,0-13.33,4.62-14.94,11.13l-38.73,157h-5c-19.62,0-35.52-14.89-35.52-33.26Z" transform="translate(245.14 -17.87)"/><path class="cls-1" d="M1232.65,758.35h0L1282,1013.23l50.81-254.88h4.56a38.86,38.86,0,0,1,38.69,39v20.69l-39,228.94a30,30,0,0,1-29.59,25h-49a30,30,0,0,1-29.67-25.49L1194,818.07V797.38A38.86,38.86,0,0,1,1232.65,758.35Z" transform="translate(245.14 -17.87)"/><path class="cls-1" d="M862.65,758.35h0l23.31,80c8.19,28.12,48.2,27.65,55.73-.66l21.1-79.32h4.56c21.37,0,38.69,17.58,38.69,39.26h0a247.47,247.47,0,0,1-3.47,41.3L971.2,1024.14c-4.86,28.67-29.36,49.62-58,49.62h0c-29.06,0-53.78-21.51-58.19-50.66L826.75,836.83A248.61,248.61,0,0,1,824,799.77v-2.16C824,775.93,841.28,758.35,862.65,758.35Z" transform="translate(245.14 -17.87)"/><ellipse class="cls-1" cx="1160.14" cy="811.17" rx="13.43" ry="13.62"/><path class="cls-1" d="M511,817.41h12.6V1072h47.68V817.41l13.56-.3c31.48,0,51.23-26.14,51.23-58.76H454C454,791,479.48,817.41,511,817.41Z" transform="translate(245.14 -17.87)"/><path class="cls-1" d="M224.81,758.35h0c0,35.21-10.47,58-59.77,58H135.16c-5.08,0-8.82,9.5-8.82,14.1v4.29c0,21.33,24.21,38.62,54.07,38.62h0c47.34,0,85.71,27.4,85.71,61.2v54.19c0,24.29-27.58,44-61.59,44h0v8.33c0,17.08-15.29,30.93-34.14,30.93h0v-39.26H147.14c0,11.78-13.38,21.34-29.88,21.34h0a4.4,4.4,0,0,1-4.6-4.16v-17.18h0c0-13.5,15.33-24.45,34.24-24.45h0c31.44,0,56.92-18.2,56.92-40.65v-6.09c0-33.8-38.37-61.2-85.7-61.2h0c-18.91,0-34.24-10.94-34.24-24.45V772.46c0-7.72,8.76-14,19.57-14Z" transform="translate(245.14 -17.87)"/><path class="cls-1" d="M2111.27,994.19l4.77,25.41-34,46.77a2.54,2.54,0,0,1-4.59-1.54l.23-13.07c0-2,.77-24.6-.28-32.16-2.09-15.08-7.59-36.42-15.75-49.26-8.65-13.6-20.4-25.05-36.65-32.68h0c-19.5,9.16-30,23.91-37.73,41.24-5.22,11.77-8.86,27.92-10.43,40.7-.66,5.32-2.62,25-3.15,32.88l-.64,13.2a2.53,2.53,0,0,1-4.58,1.37L1934,1019.6l4.75-25.38c10.06-29,32.7-53.32,62.94-67.52h0A27.71,27.71,0,0,1,1987,911L1934,758l66.23,25.47a3.82,3.82,0,0,1,.69,6.79c-10.05,6.2-14.91,17.67-11.11,28.6L2022,912a3.2,3.2,0,0,0,3.06,2.21h.1a3.27,3.27,0,0,0,2.9-2.21l32.27-93.08c3.79-10.93-1.07-22.41-11.12-28.6a3.82,3.82,0,0,1,.68-6.79L2116,758,2063,911a27.71,27.71,0,0,1-14.67,15.73h0C2078.57,940.91,2101.21,965.18,2111.27,994.19Z" transform="translate(245.14 -17.87)"/><path class="cls-1" d="M1591.61,703.07h0V560.8c0-15.62,13.17-28.28,29.41-28.28h0c13,0,24.47,8.21,28.19,20.19l32.23,103.9c8.52,27.46,34.79,46.28,64.6,46.28h0V387.72h0c-27.66,0-50.08,21.56-50.08,48.14V550c0,10.08-14.19,13.23-18.78,4.16h0c-20.94-41.41-64.64-67.69-112.53-67.69h0L1564,676.39C1563.91,691.11,1576.3,703.07,1591.61,703.07Z" transform="translate(245.14 -17.87)"/><path class="cls-1" d="M3044,580.47h0c20.49,0,43.92-14.17,43.92-31.64l.38-107.62A11.69,11.69,0,0,1,3100,429.56H3135c16.33,0,29.15,7.41,29.15,21.34h0l-39.07,33.34h0c10.46,8.92,27.58,8.92,38,0l6.13-5.23a5.73,5.73,0,0,1,9.45,4.36v26.09c0,43.31-20.16,84.84-56.06,115.46h0c-24,20.52-37.56,48.34-37.56,77.36h141c0-24.13-22.93-43.68-51.21-43.68h-18.31A7.49,7.49,0,0,1,3151,646l49.68-53.55c15.33,0,25.33-12.06,25.33-30.08v-133c0-23.22-33-41.68-60.17-41.68H3044Z" transform="translate(245.14 -17.87)"/><path class="cls-1" d="M2025.3,432.29c25.66,0,46.54,21.06,46.54,47v131.5A46.87,46.87,0,0,1,2058.19,644a46,46,0,0,1-32.89,13.73c-25.53,0-46.39-21-46.52-46.72l-.62-131.54a46.86,46.86,0,0,1,13.58-33.37,46,46,0,0,1,32.94-13.79h.62m0-44.5h-.62c-50.27,0-91,41.21-90.72,91.88l.62,131.53c.24,50.34,40.78,91,90.72,91a90.17,90.17,0,0,0,64.17-26.78A91.59,91.59,0,0,0,2116,610.75V479.25c0-50.52-40.62-91.46-90.74-91.46Z" transform="translate(245.14 -17.87)"/><path class="cls-1" d="M2371.18,696.63a3.2,3.2,0,0,1-5.49-2.23v-127A83.56,83.56,0,0,1,2388.22,510l38.12-40.25a28.92,28.92,0,0,0-4.78-43.82l-47.26-32a3.19,3.19,0,0,1,1.79-5.83h44.42a3.2,3.2,0,0,1,1.75.52l46.62,30.68c19.3,12.62,22.41,40.95,6.35,57.9l-55.36,58.45h0c-10.7,0-19.38,9.17-19.38,20.47V612.5c0,9.09-1.68,38.07,4.64,44.73a3.18,3.18,0,0,1,0,4.42Z" transform="translate(245.14 -17.87)"/><circle class="cls-1" cx="2577.1" cy="440.72" r="28"/><path class="cls-1" d="M1221.06,701.17h0V549.67A2.52,2.52,0,0,1,1226,549L1267.6,692a14.52,14.52,0,0,0,14.07,10.25h0a14.58,14.58,0,0,0,13.82-9.48l50.71-142.39c1.23-3.46,6.56-2.61,6.56,1V700h0c13.12,0,23.76-10.21,23.76-22.8l-.45-287.34a2.48,2.48,0,0,0-4.88-.6L1340.9,509.74c-11.14,22.93-47,15.31-47-10V399a11.48,11.48,0,0,0-11.7-11.24h0A11.48,11.48,0,0,0,1270.51,399l-.15,103.4c0,21.77-31.4,27.42-39.66,7.14h0c-4.29-10.53-22.93-84.24-31.9-120.06a2.47,2.47,0,0,0-4.87.61l-.45,284.66C1193.48,689.33,1205.83,701.17,1221.06,701.17Z" transform="translate(245.14 -17.87)"/><path class="cls-1" d="M2789.42,696.83a3.2,3.2,0,0,0,5.46-2.25V566.83a82.85,82.85,0,0,0-23.21-57.7l-41.36-42.57a25.87,25.87,0,0,1,4.57-39.79l50.9-32.71a3.19,3.19,0,0,0-1.71-5.88l-47.63-.16a3.18,3.18,0,0,0-1.73.5L2693.18,415c-22.25,14.2-25.83,46-7.32,65.08l52.25,53.8a3.19,3.19,0,0,0,2.29,1h.44c10,0,18.18,8.38,18.18,18.72v58.56c0,9.13,2,38.35-4.47,45.06a3.21,3.21,0,0,0,0,4.47Z" transform="translate(245.14 -17.87)"/><path class="cls-1" d="M2829.38,435h18.74a8.06,8.06,0,0,1,6.85,12.08l-9.37,16.52-9.37,16.52a7.85,7.85,0,0,1-13.7,0l-9.37-16.52-9.37-16.52a8.05,8.05,0,0,1,6.85-12.08Z" transform="translate(245.14 -17.87)"/><path class="cls-1" d="M3044,288.8c40.25,0,72.88-47.05,72.88-95.56v-132c0-23.77,16-43,35.7-43h0V193.24c0,48.51,33.25,95.56,73.5,95.56,0,0,0,43.33-42.23,43.18h-97.62c-23.32,0-42.23-15.07-42.23-43.18Z" transform="translate(245.14 -17.87)"/><path class="cls-2" d="M3105.5,291.64s25.69-36.81,59,0C3164.5,291.64,3138.9,328.56,3105.5,291.64Z" transform="translate(245.14 -17.87)"/><circle class="cls-1" cx="3380.14" cy="273.8" r="11.34"/><path class="cls-1" d="M2485.55,332.44V247.93c0-32.92-19.26-59.6-43-59.6h-51c-22,0-39.91-24.75-39.91-55.28h0c0-30.53,17.87-66.76,39.9-66.76L2443,66c23.77,0,43-15.2,43-48.12l-24,.29h-76.95c-44.54,0-80.64,50-80.64,111.72h0c0,61.7,36.1,111.72,80.64,111.72h50.63A15.32,15.32,0,0,1,2451,256.92v42.94c0,18,21.53,32.58,34.51,32.58Z" transform="translate(245.14 -17.87)"/><rect class="cls-3" x="0.5" y="2499.62" width="182.08" height="312.87"/><circle class="cls-1" cx="420.14" cy="1530.81" r="15.84"/><path class="cls-4" d="M180.62,2238.56h0a33.8,33.8,0,0,1,33.8,33.8v279.08H156.28V2321.18a20.7,20.7,0,0,0-20.7-20.7h0l13-38.83A33.81,33.81,0,0,1,180.62,2238.56Z" transform="translate(245.14 -17.87)"/><path class="cls-4" d="M206.61,2859.7H242a24,24,0,0,1,24,24v37.73H85.14l39.94-61.74,27.8-42.71,41.89-64.06,9.79-15.32a46.21,46.21,0,0,0,7.44-25.07v-3.24c0-.47,0-.47-.39-.47-2-21.35-16.84-38.53-34.46-40.85-1.17,0-2.74-.46-3.91-.46-14.8,0-27.64,9.52-34.42,23.7a41.46,41.46,0,0,1-37.52,23.18H84c0-58.49,39.55-105.84,88.89-105.84,34.45,0,63.82,23.21,78.7,56.64a120.06,120.06,0,0,1-7.05,111.87l-45.07,69.42A8.55,8.55,0,0,0,206.61,2859.7Z" transform="translate(245.14 -17.87)"/><path class="cls-4" d="M554,2350.2c22.61,0,43.31,11.26,58.26,29.55,14.57,17.83,23.77,43.16,23.77,70.84,0,55.82-36.8,100.85-82,100.85H454a62.33,62.33,0,0,1,62.24-62.33l37.81-.06c8.81,0,16.48-4.22,22.23-11.26s9.2-16.42,9.2-27.2c0-21.11-14.18-38.47-31.43-38.47H455.5l60.44-104.78a4.58,4.58,0,0,0-4-6.86H454a61.92,61.92,0,0,1,61.92-61.92H618l-36,61.92-28.37,49.72Z" transform="translate(245.14 -17.87)"/><path class="cls-4" d="M956.72,2238.56h0a49.32,49.32,0,0,1,49.32,49.32v263.56H956.72v-47.25A29.68,29.68,0,0,0,927,2474.51H824L857,2279.63a49.32,49.32,0,0,1,48.62-41.07h8.78l-23.09,135.1a32.92,32.92,0,0,0,32.45,38.46h0a32.92,32.92,0,0,0,32.92-32.92Z" transform="translate(245.14 -17.87)"/><path class="cls-4" d="M1293.8,2350.2c45.52,0,82.24,45,82.24,100.39,0,55.82-36.72,100.85-82.24,100.85H1194a62.2,62.2,0,0,1,61.88-62.2l38-.19c17.21,0,31.36-17.36,31.36-38.46s-14.15-38.47-31.36-38.47H1194V2238.56h126.81a29.36,29.36,0,0,1,29.35,29.64l-.32,32.28h-80.49a24.86,24.86,0,0,0-24.86,24.86h0a24.86,24.86,0,0,0,24.86,24.86Z" transform="translate(245.14 -17.87)"/><path class="cls-4" d="M1612.41,2311.57l-37.31,102,37.38-102Z" transform="translate(245.14 -17.87)"/><path class="cls-4" d="M2116,2238.56l-93.74,312.88H2009a30.57,30.57,0,0,1-29.29-39.35L2039,2314.44a10.85,10.85,0,0,0-10.39-14H1934a61.92,61.92,0,0,1,61.92-61.92Z" transform="translate(245.14 -17.87)"/><path class="cls-4" d="M2486,2451.59c0,55.22-40.83,99.85-91,99.85s-91-44.63-91-99.85c0-27.24,9.56-51.55,25.21-69.31a4.3,4.3,0,0,0,.36-5.21,92.35,92.35,0,0,1-15.45-51.55c0-47.85,35.76-87,80.2-87s80.2,39.11,80.2,87a89.89,89.89,0,0,1-14.73,50.17,4.94,4.94,0,0,0,.44,6.06C2476.29,2399.52,2486,2424.11,2486,2451.59Zm-55.28,0c0-22.08-15.89-39.57-35.76-39.57-19.51,0-35.77,17.49-35.77,39.57,0,21.17,16.26,39.11,35.77,39.11C2414.87,2490.7,2430.76,2472.76,2430.76,2451.59Zm-60.33-126.07c0,14.27,10.84,25.77,23.85,25.77s23.84-11.5,23.84-25.77-10.84-25.76-23.84-25.76S2370.43,2311.26,2370.43,2325.52Z" transform="translate(245.14 -17.87)"/><path class="cls-4" d="M2856,2328.65a86.92,86.92,0,0,1-5.36,30.73c0,.36,0,.71-.35.71l-69.53,191.35h-15.54a25.17,25.17,0,0,1-23.57-34l32.18-85.93a9.21,9.21,0,0,0-8.73-12.42H2765c-50.34,0-91-40.63-91-90.44s40.7-90.09,91-90.09a91.61,91.61,0,0,1,68.55,30.74A90.09,90.09,0,0,1,2856,2328.65Zm-48.56,11.66a39.92,39.92,0,0,0,1.43-11.66A43.48,43.48,0,1,0,2805,2347Z" transform="translate(245.14 -17.87)"/><path class="cls-4" d="M3226,2395c0,86.5-40.74,156.44-91,156.44s-91-69.94-91-156.44c0-86,40.74-156.44,91-156.44S3226,2309,3226,2395Zm-46.41,0c0-52.45-20.19-95.24-44.63-95.24s-44.28,42.79-44.28,95.24c0,52.91,19.84,95.7,44.28,95.7S3179.63,2447.91,3179.63,2395Z" transform="translate(245.14 -17.87)"/><path class="cls-4" d="M545,2666.06h0a18.44,18.44,0,0,1,18.39,19.69l-8.45,124.49H535.06l-8.45-124.49A18.44,18.44,0,0,1,545,2666.06Zm0,158.42h0a19.73,19.73,0,0,1,19.73,19.73h0A19.73,19.73,0,0,1,545,2863.94h0a19.73,19.73,0,0,1-19.73-19.73h0A19.73,19.73,0,0,1,545,2824.48Z" transform="translate(245.14 -17.87)"/><path class="cls-4" d="M1006.08,2765A91.08,91.08,0,1,1,915,2673.92,91.27,91.27,0,0,1,1006.08,2765Zm-19.58,0a71.5,71.5,0,0,0-142.83-4.86c-2.79,41.33,30.25,76.06,71.33,76.06C954.46,2836.2,986.5,2804.16,986.5,2765Zm-28.19,18.39a3.28,3.28,0,0,0,3.27,3.27h3.85v20.25a4.07,4.07,0,0,1-4.07,4.07H950.3a16.18,16.18,0,0,1-13.35-6.82,47.69,47.69,0,0,1-25.51,7.71,46.87,46.87,0,1,1,22.25-88.11l19.73-4a4.08,4.08,0,0,1,4.89,4Zm-24.64-17.55a22.38,22.38,0,1,0-21.39,21.39A22.38,22.38,0,0,0,933.67,2765.84Z" transform="translate(245.14 -17.87)"/><path class="cls-4" d="M1348.19,2725.1h65.26l-9.49,19.58H1338.7l-19.29,40.64H1385l-9.5,19.58h-65.26l-27.89,59h-21.95l28.18-59h-45.09l-27.89,59h-21.66l27.89-59h-65.26l9.19-19.58h65.56l19-40.64H1185l9.5-19.58h65.26l27.89-59h21.66l-27.89,59h44.8l28.18-59h21.65ZM1317,2744.68h-44.8L1253,2785.32h44.8Z" transform="translate(245.14 -17.87)"/><path class="cls-4" d="M1730.06,2804.31v3.26c-1.19,30-25.81,53.4-55.48,56.07v5.64a19.58,19.58,0,0,1-19.58,19.58h0a19.58,19.58,0,0,1-19.58-19.58v-5.34H1592.7v-39.46H1671a14.29,14.29,0,0,0,3.56-.3,20.36,20.36,0,0,0,16.32-19.87v-1.78c-.89-8.61-7.72-15.43-16.32-17.21a11.59,11.59,0,0,0-4.45-.59H1639a14.29,14.29,0,0,1-3.56-.3,57.44,57.44,0,0,1-33.52-12.76,59.56,59.56,0,0,1,33.52-105.61v-5.34a19.58,19.58,0,0,1,19.58-19.58h0a19.58,19.58,0,0,1,19.58,19.58v5.34h42.72l-.48,39.58-77.84-.12a14.29,14.29,0,0,0-3.56.3,19.91,19.91,0,0,0,0,39.16,14.77,14.77,0,0,0,3.56.29h32a14.29,14.29,0,0,1,3.56.3A58.87,58.87,0,0,1,1730.06,2804.31Z" transform="translate(245.14 -17.87)"/><path class="cls-4" d="M2038.5,2740.23l12.46,13.65-44.21,35.89-7.71-8.31Z" transform="translate(245.14 -17.87)"/><path class="cls-4" d="M2485.14,2726.62l-4.75,39.46h-8.79a7.53,7.53,0,0,0-7.53,7.52v18a22.91,22.91,0,0,1-.29,4.45,45.17,45.17,0,0,1-3,14.24c-9.2,26.7-37.68,46-71.5,46-41.23,0-74.75-29.08-74.75-64.68,0-16.06,6.77-30.72,18.05-42.11a6.54,6.54,0,0,0,.62-8.61,49.22,49.22,0,0,1-10.66-30.56c0-30.86,29.66-55.77,66.15-55.77s65.86,24.91,65.86,55.77H2408.3c0-9.2-8.9-16.61-19.58-16.61-11,0-19.58,7.71-19.58,16.61,0,8,6.53,14.83,15.43,16.31h4.74a9.79,9.79,0,0,1,9.79,9.79v19.88a9.79,9.79,0,0,1-9.79,9.79h0v.3c-16.31,0-29.36,11.27-29.36,25.21s13.05,25.22,29.36,25.22c16,0,29.37-11.27,29.37-25.22v-15.5a49.47,49.47,0,0,1,49.47-49.47Z" transform="translate(245.14 -17.87)"/><path class="cls-4" d="M2812.06,2740.12l-22.28,7.21a6.68,6.68,0,0,0-3.34,10.28l13.53,18.58a9.69,9.69,0,0,1-2.1,13.51l-.12.09a9.7,9.7,0,0,1-13.57-2.09l-13.78-18.87a6.68,6.68,0,0,0-10.79,0L2746,2787.48a9.7,9.7,0,0,1-13.48,2.17h0a9.7,9.7,0,0,1-2.22-13.55l13.6-18.83a6.68,6.68,0,0,0-3.33-10.25l-22-7.21a9.69,9.69,0,0,1-6.21-12.14l.08-.25a9.68,9.68,0,0,1,12.22-6.29l22.35,7.23a6.67,6.67,0,0,0,8.72-6.35v-23a9.69,9.69,0,0,1,9.7-9.69h.19a9.69,9.69,0,0,1,9.69,9.69v23.22a6.68,6.68,0,0,0,8.76,6.34l21.83-7.17a9.7,9.7,0,0,1,12.22,6.15l.08.25A9.69,9.69,0,0,1,2812.06,2740.12Z" transform="translate(245.14 -17.87)"/><path class="cls-4" d="M3172.84,2882.52v.29a9.78,9.78,0,0,1-11.12,9.73c-49.61-7.3-88-62.89-88-130.31,0-67.15,38.35-122.72,88-130a9.78,9.78,0,0,1,11.12,9.73v.45a9.52,9.52,0,0,1-7.39,9.19c-28.57,7-50.75,53.76-50.75,110.65,0,56.61,22.18,103.64,50.75,110.64A9.88,9.88,0,0,1,3172.84,2882.52Z" transform="translate(245.14 -17.87)"/><path class="cls-4" d="M125.46,3014.57h0a9.78,9.78,0,0,1,11.12-9.73c49.61,7.29,88,62.86,88,130,0,67.43-38.35,123-88,130.31a9.78,9.78,0,0,1-11.12-9.73v-.28a9.87,9.87,0,0,1,7.39-9.65c28.57-7,50.75-54,50.75-110.65,0-56.88-22.18-103.68-50.75-110.65A9.85,9.85,0,0,1,125.46,3014.57Z" transform="translate(245.14 -17.87)"/><path class="cls-4" d="M917.37,3129.07h.6l.29.29,3,1.78a1.78,1.78,0,0,0,1.19.3l1.18.59c.6.3,1.19.3,1.49.6a12.19,12.19,0,0,0,3,1.18,22.26,22.26,0,0,0,4.45.3l4.45-.89a27,27,0,0,0,6.53-3.26l.59-.6,2.67-1.78v.89a10.39,10.39,0,0,1-.29,2.67c-.3,2.08-2.08,5.05-4.75,8.61l-1.19,1.18a6.6,6.6,0,0,0-1.48,1.19,33,33,0,0,1-3.26,1.78,16.19,16.19,0,0,1-8,2.08,30.58,30.58,0,0,1-8.9-1.19c-1.49-.59-3-1.19-4.16-1.78l-3.26-1.48-3-1.78a27.38,27.38,0,0,0-2.37-1.49c-1.78-.89-3.26-1.48-4.75-2.07a22.56,22.56,0,0,0-4.45-.6h-.59a6.45,6.45,0,0,0-2.37.3,1.78,1.78,0,0,1-1.19.3,32.85,32.85,0,0,0-3.86,1.48,5.23,5.23,0,0,1-2.07,1.48c-.3.3-.6.3-.89.6l-1.78,1.78a.94.94,0,0,1-.6.29l-.29.3v-1.19a7.52,7.52,0,0,1,.29-2.37v-.3a12.84,12.84,0,0,1,1.49-3.85,15,15,0,0,1,3.26-4.75,13.57,13.57,0,0,1,6.23-4.15,25.75,25.75,0,0,1,8.31-1.49,31.47,31.47,0,0,1,8.3,1.78c1.49.6,2.67,1.19,3.86,1.78l2.37,1.19Z" transform="translate(245.14 -17.87)"/><path class="cls-4" d="M1309.36,3131.3l-44.2-35.9,12.46-13.64,39.46,41.23Z" transform="translate(245.14 -17.87)"/><path class="cls-4" d="M1664.94,3125.06h37.38v19.88h-37.38v37.38h-19.88v-37.38h-37.38v-19.88h37.38v-37.38h19.88Z" transform="translate(245.14 -17.87)"/><path class="cls-4" d="M1970.9,3244.81H2089v19.58H1970.9Z" transform="translate(245.14 -17.87)"/><path class="cls-4" d="M2347.53,3125.06h94.94v19.88h-94.94Z" transform="translate(245.14 -17.87)"/><path class="cls-4" d="M2717.53,3107.26h94.94v19.88h-94.94Zm0,35.6h94.94v19.88h-94.94Z" transform="translate(245.14 -17.87)"/><path class="cls-4" d="M3157.4,3216.14a30.2,30.2,0,0,0,30.26,30.26V3266h-15.43a54.32,54.32,0,0,1-54.29-54.29V3201a78.42,78.42,0,0,0-35.6-65.86v-.3a78.42,78.42,0,0,0,35.6-65.86v-10.68a54.32,54.32,0,0,1,54.29-54.29h15.43v19.58a30.2,30.2,0,0,0-30.26,30.26v8.61a86.94,86.94,0,0,1-39.16,72.38,87.07,87.07,0,0,1,39.16,72.68Z" transform="translate(245.14 -17.87)"/><path class="cls-4" d="M152.6,3577.53a87.1,87.1,0,0,1,39.16-72.68,87,87,0,0,1-39.16-72.38v-8.61a30.39,30.39,0,0,0-30.26-30.26V3374h15.43a54.32,54.32,0,0,1,54.29,54.29V3439a78.87,78.87,0,0,0,35.3,65.86l.3.3a78.42,78.42,0,0,0-35.6,65.86v10.68A54.32,54.32,0,0,1,137.77,3636H122.34V3616.4a30.39,30.39,0,0,0,30.26-30.26Z" transform="translate(245.14 -17.87)"/><path class="cls-4" d="M549.6,3616.4h30.26V3636H510.14V3374h69.72v19.58H549.6Z" transform="translate(245.14 -17.87)"/><path class="cls-4" d="M880.14,3393.6V3374h69.72v262H880.14V3616.4H910.4V3393.6Z" transform="translate(245.14 -17.87)"/><path class="cls-4" d="M1342.7,3603.94H1321l-93.74-197.88H1249Z" transform="translate(245.14 -17.87)"/><path class="cls-4" d="M1645.21,3406.06h19.58v197.88h-19.58Z" transform="translate(245.14 -17.87)"/><path class="cls-4" d="M2025,3431.43h0a19.73,19.73,0,0,1,19.73,19.73h0a19.73,19.73,0,0,1-19.73,19.73h0a19.73,19.73,0,0,1-19.73-19.73h0A19.73,19.73,0,0,1,2025,3431.43Zm0,79.21h0a19.73,19.73,0,0,1,19.73,19.73v11.42c0,26-15.5,33.95-23.75,36.55a5,5,0,0,1-6.07-2.88h0a5,5,0,0,1,1.74-5.95,21,21,0,0,0,9.09-17.63h0a1.78,1.78,0,0,0-1.78-1.78h0a18.69,18.69,0,0,1-18.69-18.69v-1A19.73,19.73,0,0,1,2025,3510.64Z" transform="translate(245.14 -17.87)"/><path class="cls-4" d="M2395,3445.67h0a19.73,19.73,0,0,1,19.73,19.73h0a19.72,19.72,0,0,1-19.73,19.72h0a19.72,19.72,0,0,1-19.73-19.72h0A19.73,19.73,0,0,1,2395,3445.67Zm0,79.21h0a19.72,19.72,0,0,1,19.73,19.72h0a19.73,19.73,0,0,1-19.73,19.73h0a19.73,19.73,0,0,1-19.73-19.73h0A19.72,19.72,0,0,1,2395,3524.88Z" transform="translate(245.14 -17.87)"/><path class="cls-4" d="M2765,3438.58h0a19.73,19.73,0,0,1,19.73,19.73v11.42c0,26-15.5,33.95-23.75,36.55a5,5,0,0,1-6.07-2.89h0a5,5,0,0,1,1.74-5.94,21,21,0,0,0,9.09-17.64V3478H2765a19.72,19.72,0,0,1-19.73-19.72h0A19.73,19.73,0,0,1,2765,3438.58Z" transform="translate(245.14 -17.87)"/><path class="cls-4" d="M3112.45,3513.56h-.29a19.58,19.58,0,0,1-19.58-19.58V3482.7c0-26.2,15.49-34.23,23.74-36.84a5,5,0,0,1,6.07,2.88h0a5,5,0,0,1-1.73,5.94,21,21,0,0,0-9.1,17.64v2.08h.89A19.57,19.57,0,0,1,3132,3494h0A19.58,19.58,0,0,1,3112.45,3513.56Zm45.39,0h-.29A19.58,19.58,0,0,1,3138,3494V3482.7c0-26.2,15.49-34.23,23.74-36.84a5,5,0,0,1,6.07,2.88h0a5,5,0,0,1-1.73,5.94,21,21,0,0,0-9.1,17.64v2.08h.89a19.57,19.57,0,0,1,19.58,19.58h0A19.58,19.58,0,0,1,3157.84,3513.56Z" transform="translate(245.14 -17.87)"/><path class="cls-4" d="M152.31,3776.87h0A19.72,19.72,0,0,1,172,3796.6V3808c0,26-15.49,33.95-23.75,36.55a5,5,0,0,1-6.06-2.88h0a5,5,0,0,1,1.74-6,21,21,0,0,0,9.09-17.63v-1.78h-.74a19.73,19.73,0,0,1-19.73-19.73h0A19.73,19.73,0,0,1,152.31,3776.87Zm45.38,0h0a19.73,19.73,0,0,1,19.73,19.73V3808c0,26-15.49,33.95-23.75,36.55a5,5,0,0,1-6.06-2.88h0a5,5,0,0,1,1.74-6,21,21,0,0,0,9.09-17.63v-1.78h-.75A19.73,19.73,0,0,1,178,3796.6h0A19.72,19.72,0,0,1,197.69,3776.87Z" transform="translate(245.14 -17.87)"/><path class="cls-4" d="M602.7,3776.06,509,3973.94H487.3L581,3776.06Z" transform="translate(245.14 -17.87)"/><path class="cls-4" d="M599.17,3092.28a45,45,0,0,1-1.78,13,22.43,22.43,0,0,1-1.19,4.16c-5.64,14.24-17.5,25.21-30.56,33.52-14.19,8.81-20.51,13.58-22.29,27.64A11.71,11.71,0,0,1,531.77,3181h-.28a11.78,11.78,0,0,1-10.83-7c-.13-.31-.27-.64-.4-1a53.62,53.62,0,0,1-3.56-18.69c0-12.75,5-28.48,23.73-43.31,0,0,16.91-10.68,16.91-23.73a13.49,13.49,0,0,0-.89-4.75c-2.37-7.12-8.6-9.79-15.43-9.79a34.17,34.17,0,0,0-13.64,3.26c-6.23,3-12.46,6.23-18.4,9.79-.59.3-3,1.78-5.93,3.86l-6.31-7.7a26.13,26.13,0,0,1,11-41,81.38,81.38,0,0,1,29.12-5.62,76.41,76.41,0,0,1,11.57.89c15.42,2.38,28.77,9.49,38.56,22.55C596.5,3071.22,599.17,3082.79,599.17,3092.28Zm-65.71,102.94h0A19.72,19.72,0,0,1,553.18,3215h0a19.72,19.72,0,0,1-19.72,19.73h0A19.73,19.73,0,0,1,513.73,3215h0A19.73,19.73,0,0,1,533.46,3195.22Z" transform="translate(245.14 -17.87)"/><path class="cls-4" d="M915,3934.84h0a19.73,19.73,0,0,1,19.73,19.73V3966c0,26-15.5,34-23.75,36.55a5,5,0,0,1-6.07-2.89h0a5,5,0,0,1,1.74-5.94,21,21,0,0,0,9.09-17.64v-1.78H915a19.72,19.72,0,0,1-19.73-19.72h0A19.73,19.73,0,0,1,915,3934.84Z" transform="translate(245.14 -17.87)"/><path class="cls-4" d="M1285,3934.84h0a19.73,19.73,0,0,1,19.73,19.73h0a19.72,19.72,0,0,1-19.73,19.72h0a19.72,19.72,0,0,1-19.73-19.72h0A19.73,19.73,0,0,1,1285,3934.84Z" transform="translate(245.14 -17.87)"/><path class="cls-4" d="M1690.9,3853.49l-34.42,21.36,34.42,21.66v23.14l-53.11-32.93-18.69-11.87,18.69-11.57,53.11-32.93Z" transform="translate(245.14 -17.87)"/><path class="cls-4" d="M2042.21,3863.28l18.69,11.57-18.69,11.87-53.11,32.93v-23.14l34.42-21.66-34.42-21.36v-23.14Z" transform="translate(245.14 -17.87)"/><path class="cls-4" d="M1655.18,2369.31h0a9.45,9.45,0,0,1-8.89-12.69l43-118.06h-33.92a23.08,23.08,0,0,0-21.67,15.13l-21.21,57.88-37.38,102-2.7,7.39h0l-2.75,7.53c0,.36-.36.72-.36,1.07a88.16,88.16,0,0,0-5.34,30.66,91.35,91.35,0,0,0,89.45,91.22c49.95,1,91.59-39.29,92.65-89.25A90.81,90.81,0,0,0,1655.18,2369.31Zm-.85,134.71A43.87,43.87,0,0,1,1611,2460.2a40.1,40.1,0,0,1,1.79-11.41l2.49-6.77a43.31,43.31,0,0,1,39.92-25.66,43.83,43.83,0,1,1-.85,87.66Z" transform="translate(245.14 -17.87)"/><path class="cls-1" d="M6136.21,608.57l-6.09,69.21-28.68,66.64c-7.55-26.95-22.74-31.26-31.67-31.26a28.14,28.14,0,0,0-5.4.52l-7.66-64,49.58,18.41,2.62,1,1.16-2.56,26.14-57.9m4.53-17.34-33.41,74-54.18-20.12,8.65,72.35a23.44,23.44,0,0,1,8-1.31c9.5,0,24.85,5.38,30.8,37.89l32.5-75.53,7.67-87.29Z" transform="translate(245.14 -17.87)"/><path class="cls-1" d="M6088,578.61c5.47.46,9.6,2.34,12.26,5.59,4.49,5.48,3.59,13.29,3.58,13.36l-.16,1.25.78,1L6123,623.32l-17.21,38.13L6056,643l-1.72-19.21,17.48-24.14.66-.91-.1-1.12c-.52-5.77.67-10.33,3.54-13.54,4.28-4.81,11.17-5.37,12.18-5.43m.05-3s-20.71.39-18.76,22.24l-18.14,25,2,22.23,54.18,20.12,19.12-42.35L6106.82,598s2.69-20.68-18.76-22.34Z" transform="translate(245.14 -17.87)"/><path class="cls-1" d="M6061.8,717.47c5.56-2.69,11.17-5.29,16.76-7.93,2.79-1.32,5.6-2.59,8.41-3.89l8.41-3.87-.25.18q6.31-7.47,12.75-14.83l12.81-14.77-.22.42c1.57-6.83,3.26-13.62,4.89-20.43s3.25-13.62,5-20.42l5.11-20.37c1.77-6.78,3.49-13.57,5.32-20.33-1.38,6.87-2.88,13.71-4.33,20.56l-4.55,20.51c-1.52,6.84-3.14,13.65-4.71,20.47s-3.12,13.66-4.77,20.46l-.06.24-.16.18-12.94,14.66q-6.45,7.34-13,14.61l-.11.12-.14.06-8.52,3.65c-2.84,1.2-5.67,2.44-8.53,3.62C6073.22,712.74,6067.53,715.16,6061.8,717.47Z" transform="translate(245.14 -17.87)"/><path class="cls-1" d="M6055.43,783.4A32.63,32.63,0,1,1,6088.06,816,32.63,32.63,0,0,1,6055.43,783.4Z" transform="translate(245.14 -17.87)"/><line class="cls-5" x1="6333.2" y1="732.9" x2="6333.2" y2="704.16"/><path class="cls-1" d="M6088.06,578.61a16.06,16.06,0,0,1,15.78,13.12,15.65,15.65,0,0,1,.27,2.93A16,16,0,0,1,6094,609.58l-1.9.75v6.6a5,5,0,0,1-.86,2.46h-4.09a4.69,4.69,0,0,1-1-2.46v-.06l-.09-4.41,0-2.2-2.1-.62c-5.93-1.75-11.91-7.07-11.91-15,0-.19,0-.38,0-.6a16.06,16.06,0,0,1,16-15.45m0-3A19,19,0,0,0,6069,594c0,.23,0,.47,0,.71,0,8.82,6.43,15.6,14.06,17.86l.08,4.41c0,2,1.61,5.46,3.59,5.46h4.91c2,0,3.42-3.48,3.42-5.46v-4.56a19.05,19.05,0,0,0,12-17.71,18.82,18.82,0,0,0-.32-3.47,19,19,0,0,0-18.73-15.58Z" transform="translate(245.14 -17.87)"/><path class="cls-1" d="M6112.37,576.36h0c1.64,0,2.64.44,2.88.85.53.94-.86,4.71-5.71,7.74a22.46,22.46,0,0,0-4.38-6.48,15.58,15.58,0,0,1,7.21-2.11m0-4.49a20.06,20.06,0,0,0-9.65,2.81l-.8.48a3.7,3.7,0,0,0-.61,5.81,18.13,18.13,0,0,1,4.42,6.52,3.65,3.65,0,0,0,3.42,2.31,3.77,3.77,0,0,0,1.85-.49l.06,0c6.77-3.86,10.39-10.26,8.09-14.29-1.18-2.07-3.7-3.11-6.78-3.11Z" transform="translate(245.14 -17.87)"/><path class="cls-1" d="M6063.6,576.2a15.33,15.33,0,0,1,7.32,2.25,22.11,22.11,0,0,0-4.31,6.51c-4.94-3.15-6.29-7-5.73-8,.23-.39,1.18-.8,2.72-.8m0-4.49c-3,0-5.39,1-6.58,3-2.37,4,1.12,10.46,7.81,14.46l.24.14a3.7,3.7,0,0,0,5.36-1.83,17.79,17.79,0,0,1,4.33-6.5,3.69,3.69,0,0,0-.55-5.77l-.76-.47a19.87,19.87,0,0,0-9.85-3Z" transform="translate(245.14 -17.87)"/><path class="cls-1" d="M6091.33,592.83a4.32,4.32,0,1,1,4.32,4.31A4.32,4.32,0,0,1,6091.33,592.83Z" transform="translate(245.14 -17.87)"/><path class="cls-1" d="M6076.16,592.83a4.32,4.32,0,1,1,4.32,4.31A4.31,4.31,0,0,1,6076.16,592.83Z" transform="translate(245.14 -17.87)"/><path class="cls-6" d="M6074.6,753.67s-19.17-28.36-12.8-36.2l-17.08-39.28s-13.78-29.86,7.24-55.8l-13.83-31.15,29.07,37.48s-5,11.12,5.21,14.17" transform="translate(245.14 -17.87)"/><path class="cls-1" d="M6095.68,702.44l-33.88,15s29.81-11.56,38.77,36.58Z" transform="translate(245.14 -17.87)"/><polygon class="cls-1" points="6340.82 684.57 6301.91 657.5 6306.94 699.6 6340.82 684.57"/><polygon class="cls-1" points="6301.91 657.5 6352.47 647.37 6298.29 627.25 6301.91 657.5"/><path class="cls-1" d="M3146.06,2084.36l-.1,0c.06.28.12.56.17.85l.29-.67A2.75,2.75,0,0,0,3146.06,2084.36Z" transform="translate(245.14 -17.87)"/><path class="cls-1" d="M3172,1954l-19.64-24.94a.06.06,0,0,0,0,0,.28.28,0,0,0,0-.09,18.29,18.29,0,0,0,.27-3.16,19.07,19.07,0,0,0-3.65-11.21,4.71,4.71,0,0,0-.33-.45.54.54,0,0,0-.09-.12,17.28,17.28,0,0,1,2.69,4.61,3.67,3.67,0,0,0,3.42,2.32,3.85,3.85,0,0,0,1.85-.49l.06,0c6.77-3.85,10.4-10.26,8.09-14.28-1.18-2.07-3.69-3.11-6.77-3.11a20.09,20.09,0,0,0-9.66,2.81l-.8.48a3.69,3.69,0,0,0-1,5.41s0,0,0,0a3,3,0,0,0,.34.38c-.31-.31-.66-.61-1-.91a19.6,19.6,0,0,0-1.87-1.38,1,1,0,0,0-.19-.12,18.88,18.88,0,0,0-10.19-3h-.2a18.71,18.71,0,0,0-10.13,3l-.12.08a17.14,17.14,0,0,0-2.42,1.74,3.7,3.7,0,0,0-1-5.28l-.75-.47a19.8,19.8,0,0,0-9.85-3c-3,0-5.4,1-6.59,3-2.37,4,1.13,10.44,7.81,14.44l.24.16a3.68,3.68,0,0,0,1.9.52,3.64,3.64,0,0,0,3.33-2.09h0v0h0l0,0h0a.61.61,0,0,0,.07-.14l-.06.15v0s0,0,0,0l-.13.33a1.27,1.27,0,0,0,0,.14,18.71,18.71,0,0,0-1.12,5.76c0,.24,0,.48,0,.71a17.52,17.52,0,0,0,.29,3.19l-12.58,17.37-4.93,6.8.17.37-.75,1,1.94,21.76,3.62,30.25,5,42.11.08,0,.06,0h0l.07,0c.15,0,.37-.12.64-.19a23.88,23.88,0,0,1,7.1-1,24.23,24.23,0,0,1,18.29,8.33c4.8,5.23,9.17,13.52,11.92,26.58.15.69.29,1.4.42,2.12h0l.1,0a2.75,2.75,0,0,1,.36.15l32.21-74.86,7.68-87.28Zm-14.08-46.52c1.63,0,2.63.44,2.87.83.53,1-.85,4.72-5.71,7.75a22.72,22.72,0,0,0-4.37-6.47A15.39,15.39,0,0,1,3157.94,1907.5Zm-39.38,12.75a13.57,13.57,0,0,1,6-7.73,16,16,0,0,1,17.63-.27l.09.06a13.49,13.49,0,0,1,3.51,3,5.82,5.82,0,0,1,.5.67l.16.21c3.74,5.41,2.93,12.42,2.93,12.49a.35.35,0,0,0,0,.13,16,16,0,0,1-9.86,11.88l-1.9.75v6.6a5,5,0,0,1-.86,2.46h-4.08a4.59,4.59,0,0,1-1-2.46v0l-.09-4.41,0-2.21-2.1-.62c-5.17-1.53-10.4-5.77-11.63-12.1v0A21.93,21.93,0,0,1,3118.56,1920.25Zm-6.39-4.15c-4.94-3.15-6.29-7-5.73-8,.23-.38,1.18-.8,2.73-.8a15.21,15.21,0,0,1,7.31,2.25A22.16,22.16,0,0,0,3112.17,1916.1Zm-10.64,58-1.72-19.22,4.4-6.06,11.73-16.22a19.87,19.87,0,0,0,12.69,11l.08,4.42c0,2,1.61,5.46,3.6,5.46h4.9c2,0,3.42-3.47,3.42-5.46v-4.55a19.07,19.07,0,0,0,10.76-10.84l17.13,21.78-17.21,38.13Zm39,59-34.92-24.29-.34-2.89,42-8.4,4.54,1.69,2.63,1,1.15-2.54,26.1-57.82c-.25,1-.5,1.92-.75,2.9l-5.11,20.38c-1.7,6.79-3.3,13.61-4.95,20.42s-3.28,13.45-4.84,20.2l-12.64,14.58q-6.37,7.31-12.63,14.71Zm35.15-24.18L3147,2075.56c-.75-2.69-5.47-41.32-5.47-41.32l.14-.06.11-.13c4.39-4.84,8.7-9.72,13-14.6l12.95-14.66.15-.18.06-.24c1.65-6.81,3.18-13.64,4.77-20.47s3.19-13.63,4.71-20.46l3.75-16.9Z" transform="translate(245.14 -17.87)"/><path class="cls-1" d="M3097.35,1953.15l-.62.87,0,.47.75-1Zm49.18-41.42s0,0,0,0a15.35,15.35,0,0,0-2.52-1.89,19.6,19.6,0,0,1,1.87,1.38c.34.3.69.6,1,.91A3,3,0,0,1,3146.53,1911.73Zm-12.91-2a16.09,16.09,0,0,0-9,2.78,20.82,20.82,0,0,1,9-2.77,20.05,20.05,0,0,1,8.66,2.5A16,16,0,0,0,3133.62,1909.74Zm-17.73,9h0l.06-.15A.61.61,0,0,1,3115.89,1918.79Zm0,0h0v0Zm0,0v0s0,0,0,0Zm0,0a2.39,2.39,0,0,0-.11.32l.13-.33Z" transform="translate(245.14 -17.87)"/><path class="cls-1" d="M3166.24,2114.52a32.61,32.61,0,1,1-20.28-30.2h0l.1,0a2.75,2.75,0,0,1,.36.15A32.65,32.65,0,0,1,3166.24,2114.52Z" transform="translate(245.14 -17.87)"/><line class="cls-5" x1="3378.77" y1="2064.04" x2="3378.77" y2="2035.29"/><path class="cls-1" d="M3145.83,1915.33a13.49,13.49,0,0,0-3.51-3,18.82,18.82,0,0,1,1.62,1.2,15.22,15.22,0,0,1,2.39,2.49A5.82,5.82,0,0,0,3145.83,1915.33Zm-24.44-.15a13.7,13.7,0,0,0-2.83,5.07,16.22,16.22,0,0,1,3.13-5.19,15.56,15.56,0,0,1,2.91-2.54A13.73,13.73,0,0,0,3121.39,1915.18Z" transform="translate(245.14 -17.87)"/><path class="cls-1" d="M3136.9,1924a4.31,4.31,0,1,1,4.31,4.31A4.31,4.31,0,0,1,3136.9,1924Z" transform="translate(245.14 -17.87)"/><path class="cls-1" d="M3121.73,1924a4.31,4.31,0,1,1,4.31,4.31A4.3,4.3,0,0,1,3121.73,1924Z" transform="translate(245.14 -17.87)"/><path class="cls-6" d="M3104.2,1948.82l8.56,11s-5,11.12,5.21,14.17" transform="translate(245.14 -17.87)"/><polyline class="cls-6" points="3342.49 1935.29 3328.83 1904.51 3347.42 1928.47"/><path class="cls-6" d="M3120.16,2084.8s-19.17-28.36-12.8-36.19l-17.08-39.28s-13.44-29.13,6.48-54.84" transform="translate(245.14 -17.87)"/><path class="cls-1" d="M3107.59,2048.52l-.09,0h0Z" transform="translate(245.14 -17.87)"/><path class="cls-1" d="M3145.54,2082.2c-2.77-12.89-7.12-21.14-11.92-26.35a24.71,24.71,0,0,0-25.39-7.52,23.88,23.88,0,0,1,7.1-1,24.23,24.23,0,0,1,18.29,8.33C3138.42,2060.85,3142.79,2069.14,3145.54,2082.2Z" transform="translate(245.14 -17.87)"/><path class="cls-1" d="M3146.13,2085.18c-.05-.29-.11-.57-.17-.85l.1,0Z" transform="translate(245.14 -17.87)"/><path class="cls-1" d="M3225.42,1367.47c-40.25,0-72.88-30.7-72.88-68.57V1162.24h0c-19.72,0-35.7,15-35.7,33.59V1298.9c0,37.87-32.63,68.57-72.88,68.57h0c0,22,18.91,39.73,42.23,39.73h97.62c23.32,0,42.23-17.78,42.23-39.73Zm-119.92,8.24s25.69-28.73,59,0C3164.5,1375.71,3138.9,1404.53,3105.5,1375.71Z" transform="translate(245.14 -17.87)"/><circle class="cls-1" cx="3135" cy="1376.48" r="8.95" transform="translate(65.13 502.07) rotate(-9.22)"/><circle class="cls-2" cx="3381.36" cy="1166.91" r="8.76"/></svg>